<svg version="1.2" xmlns="http://www.w3.org/2000/svg" viewBox="0 0 464 448" width="464" height="448">
	<path fill="currentColor" d="m354.3 128h-50.3c-17.7 0-32 14.3-32 32 0 17.7 14.3 32 32 32h128c17.7 0 32-14.3 32-32v-128c0-17.7-14.3-32-32-32-17.7 0-32 14.3-32 32v51.2l-17.6-17.6c-87.5-87.5-229.3-87.5-316.8 0-87.5 87.5-87.5 229.3 0 316.8 87.5 87.5 229.3 87.5 316.8 0 12.5-12.5 12.5-32.8 0-45.3-12.5-12.5-32.8-12.5-45.3 0-62.5 62.5-163.8 62.5-226.3 0-62.5-62.5-62.5-163.8 0-226.3 62.5-62.5 163.8-62.5 226.3 0z"/>
</svg>
