<svg version="1.2" xmlns="http://www.w3.org/2000/svg" viewBox="0 0 448 512" width="448" height="512">
	<path fill="currentColor" fill-rule="evenodd" d="m128 320v-256c0-35.3 28.7-64 64-64h140.2c12.7 0 24.9 5.1 33.9 14.1l67.8 67.9c9 9 14.1 21.2 14.1 33.9v204.1c0 35.3-28.7 64-64 64h-192c-35.3 0-64-28.7-64-64zm272 0v-204.1l-67.9-67.9h-140.1c-8.8 0-16 7.2-16 16v256c0 8.8 7.2 16 16 16h192c8.8 0 16-7.2 16-16zm-304-192v48h-32c-8.8 0-16 7.2-16 16v256c0 8.8 7.2 16 16 16h192c8.8 0 16-7.2 16-16v-32h48v32c0 35.3-28.7 64-64 64h-192c-35.3 0-64-28.7-64-64v-256c0-35.3 28.7-64 64-64z"/>
</svg>
