<svg version="1.2" xmlns="http://www.w3.org/2000/svg" viewBox="0 0 384 512" width="384" height="512">
	<path fill="currentColor" fill-rule="evenodd" class="s0" d="m229.5 0c17 0 33.2 6.7 45.2 18.7l90.6 90.5c12 12 18.7 28.3 18.7 45.3v293.5c0 35.3-28.7 64-64 64h-256c-35.3 0-64-28.7-64-64v-384c0-35.3 28.7-64 64-64zm90.5 464c8.8 0 16-7.2 16-16v-288h-80c-17.7 0-32-14.3-32-32v-80h-160c-8.8 0-16 7.2-16 16v384c0 8.8 7.2 16 16 16zm-56-208c13.3 0 24 10.7 24 24 0 13.3-10.7 24-24 24h-144c-13.3 0-24-10.7-24-24 0-13.3 10.7-24 24-24zm0 96c13.3 0 24 10.7 24 24 0 13.3-10.7 24-24 24h-144c-13.3 0-24-10.7-24-24 0-13.3 10.7-24 24-24z"/>
</svg>
